<svg xmlns="http://www.w3.org/2000/svg" width="375" viewBox="0 0 375 375" height="375" version="1.0"><defs><clipPath id="a"><path d="M 148.378906 119.785156 L 226.378906 119.785156 L 226.378906 190 L 148.378906 190 Z M 148.378906 119.785156"/></clipPath><clipPath id="b"><path d="M 154 182 L 221 182 L 221 197.785156 L 154 197.785156 Z M 154 182"/></clipPath></defs><g clip-path="url(#a)"><path fill="#03466E" d="M 173.546875 179.496094 C 179.179688 169.753906 187.378906 164.246094 187.378906 164.246094 C 180.28125 168.5 174.984375 173.714844 171.574219 177.667969 C 170.101562 176.203125 168.769531 174.652344 167.566406 173.050781 C 175.503906 162.175781 187.378906 157.539062 187.378906 157.539062 C 176.824219 161.042969 169.0625 166.945312 165.484375 170.035156 C 164.308594 168.179688 163.285156 166.292969 162.394531 164.421875 C 173.574219 153.578125 187.378906 149.976562 187.378906 149.976562 C 187.378906 149.976562 201.183594 153.578125 212.359375 164.421875 C 211.472656 166.292969 210.449219 168.179688 209.269531 170.035156 C 205.695312 166.945312 197.933594 161.042969 187.378906 157.539062 C 187.378906 157.539062 199.253906 162.175781 207.1875 173.050781 C 205.988281 174.652344 204.65625 176.203125 203.179688 177.667969 C 199.773438 173.714844 194.476562 168.5 187.378906 164.246094 C 187.378906 164.246094 195.578125 169.753906 201.210938 179.496094 C 197.472656 182.726562 192.921875 185.402344 187.378906 187.050781 C 181.835938 185.402344 177.285156 182.726562 173.546875 179.496094 Z M 199.953125 151.066406 C 199.820312 151.976562 199.589844 152.859375 199.273438 153.695312 C 198.574219 153.328125 197.867188 152.96875 197.152344 152.621094 C 197.339844 152.085938 197.484375 151.53125 197.582031 150.960938 Z M 204.933594 150.824219 C 204.765625 152.710938 204.292969 154.515625 203.574219 156.183594 C 203.199219 155.945312 202.820312 155.710938 202.433594 155.480469 C 203.042969 154.023438 203.445312 152.460938 203.605469 150.824219 C 204.066406 150.832031 204.511719 150.832031 204.933594 150.824219 Z M 164.019531 147.492188 C 164.53125 147.460938 164.953125 147.675781 165.402344 147.96875 C 166.171875 148.472656 167.097656 148.675781 168.007812 148.546875 C 169.097656 148.394531 170.566406 148.300781 172.179688 148.300781 C 172.722656 148.300781 173.167969 148.3125 173.535156 148.332031 C 173.773438 148.34375 173.972656 148.152344 173.972656 147.914062 L 180.875 147.914062 C 180.875 148.222656 181.125 148.472656 181.433594 148.472656 L 182.816406 148.472656 C 182.933594 147.75 183.21875 147.085938 183.628906 146.515625 L 182.648438 145.539062 C 182.429688 145.320312 182.078125 145.320312 181.859375 145.539062 L 179.199219 142.875 C 178.175781 144.191406 177.464844 145.757812 177.175781 147.46875 L 174.800781 147.367188 C 175.140625 145.046875 176.105469 142.933594 177.519531 141.195312 L 176.980469 140.65625 C 177.148438 140.488281 177.140625 140.210938 176.960938 140.050781 C 176.691406 139.808594 176.367188 139.5 175.984375 139.117188 C 175.722656 138.855469 175.472656 138.597656 175.230469 138.34375 C 172.980469 140.851562 171.5 144.0625 171.152344 147.609375 C 170.6875 147.601562 170.242188 147.601562 169.824219 147.609375 C 170.175781 143.679688 171.824219 140.121094 174.332031 137.359375 C 173.898438 136.867188 173.519531 136.402344 173.207031 135.988281 C 172.652344 135.253906 171.847656 134.746094 170.945312 134.554688 C 170.460938 134.453125 170.039062 134.320312 169.714844 133.992188 C 169.027344 133.304688 169.039062 132.1875 169.75 131.515625 C 170.394531 130.90625 171.414062 130.894531 172.082031 131.480469 C 172.464844 131.820312 172.609375 132.269531 172.71875 132.792969 C 172.910156 133.695312 173.417969 134.492188 174.152344 135.046875 C 175.03125 135.707031 176.136719 136.679688 177.277344 137.820312 C 177.664062 138.207031 177.972656 138.527344 178.214844 138.800781 C 178.375 138.976562 178.648438 138.984375 178.820312 138.816406 L 183.699219 143.699219 C 183.480469 143.914062 183.480469 144.269531 183.699219 144.488281 L 184.679688 145.464844 C 185.25 145.054688 185.914062 144.773438 186.636719 144.65625 L 186.636719 143.269531 C 186.636719 142.960938 186.386719 142.714844 186.078125 142.714844 L 186.078125 138.945312 C 184.347656 139.164062 182.753906 139.804688 181.398438 140.765625 L 179.792969 139.015625 C 181.582031 137.683594 183.738281 136.8125 186.078125 136.574219 L 186.078125 135.808594 C 186.316406 135.808594 186.507812 135.609375 186.492188 135.371094 C 186.472656 135.007812 186.460938 134.5625 186.460938 134.015625 C 186.460938 133.648438 186.46875 133.285156 186.476562 132.9375 C 182.90625 133.132812 179.640625 134.476562 177.042969 136.605469 C 176.71875 136.273438 176.40625 135.960938 176.101562 135.667969 C 178.957031 133.289062 182.574219 131.792969 186.535156 131.609375 C 186.578125 130.953125 186.636719 130.355469 186.710938 129.84375 C 186.839844 128.933594 186.632812 128.007812 186.132812 127.238281 C 185.839844 126.789062 185.621094 126.371094 185.65625 125.859375 C 185.710938 124.972656 186.4375 124.261719 187.328125 124.234375 C 188.304688 124.207031 189.105469 124.988281 189.105469 125.960938 C 189.105469 126.421875 188.902344 126.8125 188.632812 127.230469 C 188.128906 128.003906 187.917969 128.929688 188.046875 129.84375 C 188.199219 130.933594 188.292969 132.402344 188.292969 134.015625 C 188.292969 134.5625 188.285156 135.007812 188.265625 135.371094 C 188.25 135.609375 188.441406 135.808594 188.679688 135.808594 L 188.679688 142.714844 C 188.371094 142.714844 188.121094 142.960938 188.121094 143.269531 L 188.121094 144.65625 C 188.84375 144.773438 189.507812 145.054688 190.078125 145.464844 L 191.054688 144.488281 C 191.273438 144.269531 191.273438 143.914062 191.054688 143.699219 L 193.71875 141.035156 C 192.402344 140.015625 190.835938 139.304688 189.125 139.011719 L 189.226562 136.640625 C 191.546875 136.980469 193.660156 137.941406 195.398438 139.355469 L 195.9375 138.816406 C 196.105469 138.984375 196.382812 138.976562 196.542969 138.800781 C 196.785156 138.527344 197.09375 138.207031 197.476562 137.820312 C 197.738281 137.558594 197.996094 137.308594 198.25 137.066406 C 195.742188 134.820312 192.53125 133.335938 188.984375 132.992188 C 188.992188 132.527344 188.992188 132.082031 188.984375 131.660156 C 192.914062 132.015625 196.472656 133.660156 199.234375 136.171875 C 199.726562 135.738281 200.191406 135.355469 200.605469 135.046875 C 201.339844 134.492188 201.847656 133.695312 202.039062 132.792969 C 202.148438 132.269531 202.292969 131.820312 202.675781 131.480469 C 203.34375 130.894531 204.359375 130.90625 205.007812 131.515625 C 205.71875 132.1875 205.730469 133.304688 205.042969 133.992188 C 204.714844 134.320312 204.296875 134.453125 203.8125 134.554688 C 202.910156 134.746094 202.101562 135.253906 201.546875 135.988281 C 200.886719 136.871094 199.914062 137.976562 198.773438 139.117188 C 198.390625 139.5 198.066406 139.808594 197.792969 140.050781 C 197.617188 140.210938 197.609375 140.488281 197.777344 140.65625 L 192.898438 145.539062 C 192.679688 145.320312 192.324219 145.320312 192.109375 145.539062 L 191.128906 146.515625 C 191.539062 147.085938 191.820312 147.75 191.9375 148.472656 L 193.324219 148.472656 C 193.632812 148.472656 193.882812 148.222656 193.882812 147.914062 L 197.648438 147.914062 C 197.429688 146.1875 196.789062 144.589844 195.828125 143.234375 L 197.578125 141.632812 C 198.910156 143.421875 199.78125 145.574219 200.019531 147.914062 L 200.785156 147.914062 C 200.785156 148.152344 200.984375 148.34375 201.222656 148.332031 C 201.589844 148.3125 202.035156 148.300781 202.578125 148.300781 C 202.945312 148.300781 203.304688 148.304688 203.65625 148.3125 C 203.464844 144.742188 202.117188 141.476562 199.988281 138.878906 C 200.320312 138.558594 200.636719 138.242188 200.925781 137.9375 C 203.304688 140.792969 204.800781 144.414062 204.984375 148.375 C 205.640625 148.417969 206.238281 148.476562 206.75 148.546875 C 207.660156 148.675781 208.585938 148.472656 209.355469 147.96875 C 209.804688 147.675781 210.222656 147.460938 210.734375 147.492188 C 211.621094 147.550781 212.335938 148.277344 212.359375 149.164062 C 212.386719 150.140625 211.605469 150.941406 210.632812 150.941406 C 210.171875 150.941406 209.78125 150.738281 209.363281 150.46875 C 208.59375 149.964844 207.664062 149.753906 206.75 149.882812 C 205.660156 150.039062 204.191406 150.132812 202.578125 150.132812 C 202.035156 150.132812 201.589844 150.121094 201.222656 150.101562 C 200.984375 150.089844 200.785156 150.277344 200.785156 150.515625 L 193.882812 150.515625 C 193.882812 150.207031 193.632812 149.960938 193.324219 149.960938 L 191.9375 149.960938 C 191.917969 150.082031 191.894531 150.207031 191.863281 150.324219 C 191.582031 150.21875 191.3125 150.117188 191.054688 150.023438 C 191.109375 149.761719 191.140625 149.492188 191.140625 149.214844 C 191.140625 147.136719 189.457031 145.453125 187.378906 145.453125 C 185.300781 145.453125 183.617188 147.136719 183.617188 149.214844 C 183.617188 149.492188 183.644531 149.761719 183.703125 150.023438 C 183.445312 150.117188 183.175781 150.21875 182.894531 150.324219 C 182.863281 150.207031 182.839844 150.082031 182.816406 149.960938 L 181.433594 149.960938 C 181.125 149.960938 180.875 150.207031 180.875 150.515625 L 177.109375 150.515625 C 177.199219 151.246094 177.367188 151.949219 177.601562 152.621094 C 176.886719 152.96875 176.179688 153.328125 175.480469 153.695312 C 175.101562 152.691406 174.847656 151.625 174.734375 150.515625 L 173.972656 150.515625 C 173.972656 150.277344 173.773438 150.089844 173.535156 150.101562 C 173.167969 150.121094 172.722656 150.132812 172.179688 150.132812 C 171.808594 150.132812 171.449219 150.125 171.097656 150.117188 C 171.203125 152.007812 171.628906 153.816406 172.320312 155.480469 C 171.9375 155.710938 171.558594 155.945312 171.183594 156.183594 C 170.367188 154.289062 169.871094 152.226562 169.769531 150.058594 C 169.113281 150.015625 168.519531 149.957031 168.007812 149.882812 C 167.09375 149.753906 166.164062 149.964844 165.390625 150.46875 C 164.976562 150.738281 164.585938 150.941406 164.121094 150.941406 C 163.152344 150.941406 162.367188 150.140625 162.398438 149.164062 C 162.421875 148.277344 163.132812 147.550781 164.019531 147.492188 Z M 204.019531 182.566406 C 211.027344 178.628906 215.929688 179.871094 218.414062 182.402344 C 223.410156 175.847656 226.375 167.664062 226.375 158.785156 C 226.375 137.25 208.917969 119.789062 187.378906 119.789062 C 165.839844 119.789062 148.378906 137.25 148.378906 158.785156 C 148.378906 167.664062 151.347656 175.847656 156.34375 182.402344 C 158.824219 179.871094 163.730469 178.628906 170.738281 182.566406 C 176.398438 185.746094 180.636719 190.804688 187.378906 189.433594 C 194.117188 190.804688 198.359375 185.746094 204.019531 182.566406"/></g><g clip-path="url(#b)"><path fill="#03466E" d="M 210.277344 187.199219 C 200.03125 194.890625 193.5625 193.585938 191.070312 192.539062 C 194.390625 193.183594 199.980469 192.804688 207.988281 187.503906 C 210.011719 186.167969 211.75 185.570312 213.234375 185.453125 C 212.320312 185.835938 211.332031 186.40625 210.277344 187.199219 Z M 164.476562 187.199219 C 163.421875 186.40625 162.4375 185.835938 161.519531 185.453125 C 163.003906 185.570312 164.746094 186.167969 166.765625 187.503906 C 174.777344 192.804688 180.367188 193.183594 183.6875 192.539062 C 181.195312 193.585938 174.726562 194.890625 164.476562 187.199219 Z M 207.75 184.71875 C 194.316406 194.804688 187.378906 189.433594 187.378906 189.433594 C 187.378906 189.433594 180.4375 194.804688 167.007812 184.71875 C 158.449219 178.292969 154.472656 186.648438 154.472656 186.652344 C 155.753906 185.15625 157.089844 184.546875 157.886719 184.304688 C 165.039062 192.5625 175.597656 197.785156 187.378906 197.785156 C 199.160156 197.785156 209.71875 192.5625 216.871094 184.304688 C 217.664062 184.546875 219.003906 185.15625 220.285156 186.652344 C 220.28125 186.648438 216.308594 178.292969 207.75 184.71875"/></g></svg>