<svg xmlns="http://www.w3.org/2000/svg" width="375" viewBox="0 0 375 375" height="375" version="1.0"><defs><clipPath id="a"><path d="M 148.378906 148.378906 L 226.378906 148.378906 L 226.378906 219 L 148.378906 219 Z M 148.378906 148.378906"/></clipPath><clipPath id="b"><path d="M 154 210 L 221 210 L 221 226.378906 L 154 226.378906 Z M 154 210"/></clipPath></defs><g clip-path="url(#a)"><path fill="#03466E" d="M 173.546875 208.085938 C 179.179688 198.347656 187.378906 192.835938 187.378906 192.835938 C 180.28125 197.089844 174.984375 202.304688 171.574219 206.257812 C 170.101562 204.792969 168.769531 203.242188 167.566406 201.640625 C 175.503906 190.765625 187.378906 186.128906 187.378906 186.128906 C 176.824219 189.632812 169.0625 195.539062 165.484375 198.628906 C 164.308594 196.773438 163.285156 194.882812 162.394531 193.011719 C 173.574219 182.167969 187.378906 178.566406 187.378906 178.566406 C 187.378906 178.566406 201.183594 182.167969 212.359375 193.011719 C 211.472656 194.882812 210.449219 196.773438 209.269531 198.628906 C 205.695312 195.539062 197.933594 189.632812 187.378906 186.128906 C 187.378906 186.128906 199.253906 190.765625 207.1875 201.640625 C 205.988281 203.242188 204.65625 204.792969 203.179688 206.257812 C 199.773438 202.304688 194.476562 197.089844 187.378906 192.835938 C 187.378906 192.835938 195.578125 198.347656 201.210938 208.085938 C 197.472656 211.316406 192.921875 213.992188 187.378906 215.644531 C 181.835938 213.992188 177.285156 211.316406 173.546875 208.085938 Z M 199.953125 179.65625 C 199.820312 180.570312 199.589844 181.449219 199.273438 182.289062 C 198.574219 181.917969 197.867188 181.558594 197.152344 181.214844 C 197.339844 180.679688 197.484375 180.125 197.582031 179.554688 Z M 204.933594 179.414062 C 204.765625 181.304688 204.292969 183.105469 203.574219 184.773438 C 203.199219 184.539062 202.820312 184.304688 202.433594 184.074219 C 203.042969 182.617188 203.445312 181.050781 203.605469 179.414062 C 204.066406 179.421875 204.511719 179.421875 204.933594 179.414062 Z M 164.019531 176.085938 C 164.53125 176.050781 164.953125 176.269531 165.402344 176.5625 C 166.171875 177.0625 167.097656 177.269531 168.007812 177.140625 C 169.097656 176.984375 170.566406 176.890625 172.179688 176.890625 C 172.722656 176.890625 173.167969 176.902344 173.535156 176.921875 C 173.773438 176.9375 173.972656 176.746094 173.972656 176.507812 L 180.875 176.507812 C 180.875 176.816406 181.125 177.0625 181.433594 177.0625 L 182.816406 177.0625 C 182.933594 176.34375 183.21875 175.675781 183.628906 175.109375 L 182.648438 174.128906 C 182.429688 173.914062 182.078125 173.914062 181.859375 174.128906 L 179.199219 171.46875 C 178.175781 172.78125 177.464844 174.351562 177.175781 176.0625 L 174.800781 175.957031 C 175.140625 173.640625 176.105469 171.523438 177.519531 169.789062 L 176.980469 169.25 C 177.148438 169.078125 177.140625 168.804688 176.960938 168.644531 C 176.691406 168.398438 176.367188 168.09375 175.984375 167.707031 C 175.722656 167.445312 175.472656 167.1875 175.230469 166.933594 C 172.980469 169.445312 171.5 172.65625 171.152344 176.199219 C 170.6875 176.191406 170.242188 176.191406 169.824219 176.203125 C 170.175781 172.269531 171.824219 168.710938 174.332031 165.953125 C 173.898438 165.457031 173.519531 164.996094 173.207031 164.582031 C 172.652344 163.84375 171.847656 163.335938 170.945312 163.144531 C 170.460938 163.042969 170.039062 162.910156 169.714844 162.582031 C 169.027344 161.898438 169.039062 160.777344 169.75 160.105469 C 170.394531 159.496094 171.414062 159.484375 172.082031 160.074219 C 172.464844 160.410156 172.609375 160.863281 172.71875 161.386719 C 172.910156 162.285156 173.417969 163.085938 174.152344 163.636719 C 175.03125 164.300781 176.136719 165.269531 177.277344 166.414062 C 177.664062 166.796875 177.972656 167.121094 178.214844 167.390625 C 178.375 167.570312 178.648438 167.578125 178.820312 167.410156 L 183.699219 172.289062 C 183.480469 172.507812 183.480469 172.859375 183.699219 173.078125 L 184.679688 174.058594 C 185.25 173.648438 185.914062 173.363281 186.636719 173.246094 L 186.636719 171.863281 C 186.636719 171.554688 186.386719 171.304688 186.078125 171.304688 L 186.078125 167.539062 C 184.347656 167.753906 182.753906 168.398438 181.398438 169.359375 L 179.792969 167.609375 C 181.582031 166.277344 183.738281 165.402344 186.078125 165.164062 L 186.078125 164.402344 C 186.316406 164.402344 186.507812 164.199219 186.492188 163.960938 C 186.472656 163.597656 186.460938 163.152344 186.460938 162.609375 C 186.460938 162.238281 186.46875 161.878906 186.476562 161.527344 C 182.90625 161.722656 179.640625 163.066406 177.042969 165.199219 C 176.71875 164.863281 176.40625 164.550781 176.101562 164.257812 C 178.957031 161.878906 182.574219 160.386719 186.535156 160.199219 C 186.578125 159.542969 186.636719 158.949219 186.710938 158.4375 C 186.839844 157.523438 186.632812 156.601562 186.132812 155.832031 C 185.839844 155.382812 185.621094 154.960938 185.65625 154.453125 C 185.710938 153.5625 186.4375 152.851562 187.328125 152.824219 C 188.304688 152.796875 189.105469 153.582031 189.105469 154.550781 C 189.105469 155.015625 188.902344 155.40625 188.632812 155.820312 C 188.128906 156.59375 187.917969 157.523438 188.046875 158.4375 C 188.199219 159.527344 188.292969 160.996094 188.292969 162.609375 C 188.292969 163.152344 188.285156 163.597656 188.265625 163.960938 C 188.25 164.199219 188.441406 164.402344 188.679688 164.402344 L 188.679688 171.304688 C 188.371094 171.304688 188.121094 171.554688 188.121094 171.863281 L 188.121094 173.246094 C 188.84375 173.363281 189.507812 173.648438 190.078125 174.058594 L 191.054688 173.078125 C 191.273438 172.859375 191.273438 172.507812 191.054688 172.289062 L 193.71875 169.625 C 192.402344 168.605469 190.835938 167.894531 189.125 167.605469 L 189.226562 165.230469 C 191.546875 165.570312 193.660156 166.535156 195.398438 167.949219 L 195.9375 167.410156 C 196.105469 167.578125 196.382812 167.570312 196.542969 167.390625 C 196.785156 167.121094 197.09375 166.796875 197.476562 166.414062 C 197.738281 166.152344 197.996094 165.902344 198.25 165.660156 C 195.742188 163.410156 192.53125 161.929688 188.984375 161.582031 C 188.992188 161.117188 188.992188 160.671875 188.984375 160.253906 C 192.914062 160.605469 196.472656 162.253906 199.234375 164.761719 C 199.726562 164.328125 200.191406 163.949219 200.605469 163.636719 C 201.339844 163.085938 201.847656 162.285156 202.039062 161.386719 C 202.148438 160.863281 202.292969 160.410156 202.675781 160.074219 C 203.34375 159.484375 204.359375 159.496094 205.007812 160.105469 C 205.71875 160.777344 205.730469 161.898438 205.042969 162.582031 C 204.714844 162.910156 204.296875 163.042969 203.8125 163.144531 C 202.910156 163.335938 202.101562 163.84375 201.546875 164.582031 C 200.886719 165.460938 199.914062 166.566406 198.773438 167.707031 C 198.390625 168.09375 198.066406 168.398438 197.792969 168.644531 C 197.617188 168.804688 197.609375 169.078125 197.777344 169.25 L 192.898438 174.128906 C 192.679688 173.914062 192.324219 173.914062 192.109375 174.128906 L 191.128906 175.109375 C 191.539062 175.675781 191.820312 176.34375 191.9375 177.0625 L 193.324219 177.0625 C 193.632812 177.0625 193.882812 176.816406 193.882812 176.507812 L 197.648438 176.507812 C 197.429688 174.777344 196.789062 173.183594 195.828125 171.828125 L 197.578125 170.222656 C 198.910156 172.011719 199.78125 174.167969 200.019531 176.507812 L 200.785156 176.507812 C 200.785156 176.746094 200.984375 176.9375 201.222656 176.921875 C 201.589844 176.902344 202.035156 176.890625 202.578125 176.890625 C 202.945312 176.890625 203.304688 176.898438 203.65625 176.90625 C 203.464844 173.335938 202.117188 170.070312 199.988281 167.472656 C 200.320312 167.148438 200.636719 166.832031 200.925781 166.53125 C 203.304688 169.386719 204.800781 173.003906 204.984375 176.964844 C 205.640625 177.007812 206.238281 177.066406 206.75 177.140625 C 207.660156 177.269531 208.585938 177.0625 209.355469 176.5625 C 209.804688 176.269531 210.222656 176.050781 210.734375 176.085938 C 211.621094 176.140625 212.335938 176.867188 212.359375 177.757812 C 212.386719 178.734375 211.605469 179.535156 210.632812 179.535156 C 210.171875 179.535156 209.78125 179.332031 209.363281 179.0625 C 208.59375 178.558594 207.664062 178.347656 206.75 178.476562 C 205.660156 178.628906 204.191406 178.722656 202.578125 178.722656 C 202.035156 178.722656 201.589844 178.714844 201.222656 178.691406 C 200.984375 178.679688 200.785156 178.871094 200.785156 179.109375 L 193.882812 179.109375 C 193.882812 178.800781 193.632812 178.550781 193.324219 178.550781 L 191.9375 178.550781 C 191.917969 178.675781 191.894531 178.796875 191.863281 178.917969 C 191.582031 178.808594 191.3125 178.710938 191.054688 178.613281 C 191.109375 178.355469 191.140625 178.085938 191.140625 177.808594 C 191.140625 175.730469 189.457031 174.046875 187.378906 174.046875 C 185.300781 174.046875 183.617188 175.730469 183.617188 177.808594 C 183.617188 178.085938 183.644531 178.355469 183.703125 178.613281 C 183.445312 178.710938 183.175781 178.808594 182.894531 178.917969 C 182.863281 178.796875 182.839844 178.675781 182.816406 178.550781 L 181.433594 178.550781 C 181.125 178.550781 180.875 178.800781 180.875 179.109375 L 177.109375 179.109375 C 177.199219 179.835938 177.367188 180.539062 177.601562 181.214844 C 176.886719 181.558594 176.179688 181.917969 175.480469 182.289062 C 175.101562 181.285156 174.847656 180.21875 174.734375 179.109375 L 173.972656 179.109375 C 173.972656 178.871094 173.773438 178.679688 173.535156 178.691406 C 173.167969 178.714844 172.722656 178.722656 172.179688 178.722656 C 171.808594 178.722656 171.449219 178.71875 171.097656 178.710938 C 171.203125 180.601562 171.628906 182.40625 172.320312 184.074219 C 171.9375 184.304688 171.558594 184.539062 171.183594 184.773438 C 170.367188 182.882812 169.871094 180.816406 169.769531 178.648438 C 169.113281 178.605469 168.519531 178.546875 168.007812 178.476562 C 167.09375 178.347656 166.164062 178.558594 165.390625 179.0625 C 164.976562 179.332031 164.585938 179.535156 164.121094 179.535156 C 163.152344 179.535156 162.367188 178.734375 162.398438 177.757812 C 162.421875 176.867188 163.132812 176.140625 164.019531 176.085938 Z M 204.019531 211.160156 C 211.027344 207.21875 215.929688 208.460938 218.414062 210.992188 C 223.410156 204.4375 226.375 196.253906 226.375 187.378906 C 226.375 165.839844 208.917969 148.378906 187.378906 148.378906 C 165.839844 148.378906 148.378906 165.839844 148.378906 187.378906 C 148.378906 196.253906 151.347656 204.4375 156.34375 210.992188 C 158.824219 208.460938 163.730469 207.21875 170.738281 211.160156 C 176.398438 214.335938 180.636719 219.398438 187.378906 218.023438 C 194.117188 219.398438 198.359375 214.335938 204.019531 211.160156"/></g><g clip-path="url(#b)"><path fill="#03466E" d="M 210.277344 215.789062 C 200.03125 223.484375 193.5625 222.179688 191.070312 221.128906 C 194.390625 221.773438 199.980469 221.394531 207.988281 216.09375 C 210.011719 214.757812 211.75 214.164062 213.234375 214.042969 C 212.320312 214.429688 211.332031 214.996094 210.277344 215.789062 Z M 164.476562 215.789062 C 163.421875 214.996094 162.4375 214.429688 161.519531 214.042969 C 163.003906 214.164062 164.746094 214.757812 166.765625 216.09375 C 174.777344 221.394531 180.367188 221.773438 183.6875 221.128906 C 181.195312 222.179688 174.726562 223.484375 164.476562 215.789062 Z M 207.75 213.3125 C 194.316406 223.394531 187.378906 218.023438 187.378906 218.023438 C 187.378906 218.023438 180.4375 223.394531 167.007812 213.3125 C 158.449219 206.882812 154.472656 215.238281 154.472656 215.242188 C 155.753906 213.75 157.089844 213.140625 157.886719 212.894531 C 165.039062 221.152344 175.597656 226.375 187.378906 226.375 C 199.160156 226.375 209.71875 221.152344 216.871094 212.894531 C 217.664062 213.140625 219.003906 213.75 220.285156 215.242188 C 220.28125 215.238281 216.308594 206.882812 207.75 213.3125"/></g></svg>