<svg width="124" height="124" viewBox="0 0 124 124" fill="none" xmlns="http://www.w3.org/2000/svg">
<path d="M39.9297 94.7305C48.8633 79.2773 61.875 70.5352 61.875 70.5352C50.6133 77.2813 42.207 85.5547 36.8008 91.8281C34.4609 89.5039 32.3477 87.043 30.4414 84.5039C43.0312 67.25 61.875 59.8945 61.875 59.8945C45.1289 65.4531 32.8125 74.8203 27.1406 79.7188C25.2734 76.7773 23.6484 73.7812 22.2383 70.8125C39.9727 53.6094 61.875 47.8945 61.875 47.8945C61.875 47.8945 83.7734 53.6094 101.508 70.8125C100.098 73.7812 98.4766 76.7773 96.6055 79.7188C90.9336 74.8203 78.6172 65.4531 61.875 59.8945C61.875 59.8945 80.7148 67.25 93.3047 84.5039C91.3984 87.043 89.2852 89.5039 86.9453 91.8281C81.5391 85.5547 73.1328 77.2813 61.875 70.5352C61.875 70.5352 74.8828 79.2773 83.8164 94.7305C77.8906 99.8516 70.668 104.098 61.875 106.719C53.0781 104.098 45.8555 99.8516 39.9297 94.7305ZM81.8242 49.6211C81.6133 51.0703 81.25 52.4688 80.7461 53.7969C79.6367 53.2109 78.5156 52.6445 77.3828 52.0938C77.6797 51.2461 77.9102 50.3633 78.0625 49.4609L81.8242 49.6211ZM89.7266 49.2383C89.457 52.2344 88.7109 55.0937 87.5703 57.7422C86.9727 57.3672 86.3711 56.9961 85.7617 56.6289C86.7227 54.3164 87.3633 51.8359 87.6172 49.2422C88.3516 49.2539 89.0586 49.25 89.7266 49.2383ZM24.8164 43.957C25.6289 43.9062 26.293 44.25 27.0039 44.7109C28.2266 45.5078 29.6953 45.8359 31.1367 45.6289C32.8672 45.3867 35.1992 45.2383 37.7578 45.2383C38.6211 45.2383 39.3281 45.2539 39.9062 45.2852C40.2852 45.3086 40.6055 45.0039 40.6055 44.625H51.5547C51.5547 45.1133 51.9531 45.5078 52.4414 45.5078H54.6367C54.8242 44.3672 55.2734 43.3086 55.9258 42.4062L54.3711 40.8555C54.0234 40.5078 53.4648 40.5078 53.1172 40.8555L48.8945 36.6289C47.2734 38.7148 46.1445 41.2031 45.6836 43.918L41.9219 43.7578C42.457 40.0742 43.9883 36.7187 46.2305 33.9648L45.375 33.1094C45.6406 32.8398 45.6289 32.4023 45.3477 32.1523C44.918 31.7656 44.4062 31.2773 43.793 30.6641C43.3789 30.25 42.9844 29.8438 42.5977 29.4375C39.0313 33.4219 36.6797 38.5156 36.1328 44.1406C35.3945 44.125 34.6875 44.1289 34.0195 44.1406C34.582 37.9062 37.1953 32.2578 41.1758 27.8789C40.4883 27.0977 39.8867 26.3633 39.3906 25.707C38.5117 24.5352 37.2344 23.7305 35.8008 23.4297C35.0352 23.2656 34.3672 23.0547 33.8477 22.5352C32.7578 21.4492 32.7773 19.6719 33.9062 18.6055C34.9297 17.6367 36.543 17.6211 37.6016 18.5547C38.2109 19.0898 38.4414 19.8047 38.6172 20.6328C38.918 22.0625 39.7227 23.332 40.8906 24.207C42.2852 25.2578 44.0391 26.8008 45.8516 28.6094C46.4609 29.2227 46.9492 29.7305 47.3359 30.1641C47.5859 30.4453 48.0273 30.457 48.293 30.1914L56.0391 37.9336C55.6914 38.2812 55.6914 38.8398 56.0391 39.1875L57.5938 40.7422C58.4922 40.0898 59.5508 39.6406 60.6953 39.4531V37.2578C60.6953 36.7695 60.2969 36.3711 59.8086 36.3711V30.3984C57.0664 30.7422 54.5352 31.7578 52.3867 33.2852L49.8398 30.5078C52.6797 28.3945 56.0977 27.0078 59.8086 26.6328V25.418C60.1875 25.418 60.4883 25.1016 60.4688 24.7227C60.4375 24.1445 60.4219 23.4375 60.4219 22.5742C60.4219 21.9922 60.4258 21.418 60.4414 20.8633C54.7773 21.1719 49.5937 23.3047 45.4766 26.6836C44.9648 26.1562 44.4648 25.6562 43.9805 25.1953C48.5117 21.418 54.2539 19.0469 60.5391 18.7539C60.6055 17.7148 60.6992 16.7695 60.8125 15.957C61.0195 14.5117 60.6914 13.043 59.8945 11.8203C59.4336 11.1094 59.0898 10.4453 59.1406 9.63281C59.2305 8.22656 60.3828 7.09766 61.793 7.05469C63.3398 7.01172 64.6133 8.25391 64.6133 9.79297C64.6133 10.5273 64.2891 11.1484 63.8594 11.8086C63.0625 13.0312 62.7266 14.5078 62.9336 15.957C63.1758 17.6836 63.3281 20.0156 63.3281 22.5742C63.3281 23.4375 63.3086 24.1445 63.2773 24.7227C63.2578 25.1016 63.5586 25.418 63.9375 25.418V36.3711C63.4492 36.3711 63.0508 36.7695 63.0508 37.2578V39.4531C64.1953 39.6406 65.2539 40.0898 66.1562 40.7422L67.707 39.1875C68.0547 38.8398 68.0547 38.2812 67.707 37.9336L71.9336 33.7109C69.8477 32.0898 67.3594 30.9609 64.6445 30.5L64.8047 26.7383C68.4883 27.2734 71.8438 28.8047 74.5977 31.0469L75.4531 30.1914C75.7188 30.457 76.1602 30.4453 76.4141 30.1641C76.8008 29.7305 77.2852 29.2227 77.8984 28.6094C78.3086 28.1953 78.7227 27.7969 79.125 27.418C75.1406 23.8477 70.0469 21.4961 64.4258 20.9492C64.4375 20.2109 64.4336 19.5039 64.4219 18.8359C70.6602 19.3984 76.3047 22.0117 80.6836 25.9922C81.4648 25.3047 82.2031 24.7031 82.8594 24.207C84.0234 23.332 84.832 22.0625 85.1328 20.6328C85.3047 19.8047 85.5352 19.0898 86.1445 18.5547C87.2031 17.6211 88.8164 17.6367 89.8398 18.6055C90.9687 19.6719 90.9883 21.4492 89.8984 22.5352C89.3828 23.0547 88.7109 23.2656 87.9453 23.4297C86.5156 23.7305 85.2344 24.5352 84.3555 25.707C83.3047 27.1016 81.7656 28.8555 79.9531 30.6641C79.3438 31.2773 78.8281 31.7656 78.3984 32.1523C78.1172 32.4023 78.1055 32.8398 78.375 33.1094L70.6289 40.8555C70.2813 40.5078 69.7227 40.5078 69.375 40.8555L67.8203 42.4062C68.4727 43.3086 68.9219 44.3672 69.1094 45.5078H71.3047C71.793 45.5078 72.1914 45.1133 72.1914 44.625H78.1641C77.8203 41.8828 76.8047 39.3516 75.2812 37.2031L78.0547 34.6562C80.1719 37.4961 81.5547 40.9102 81.9297 44.625H83.1406C83.1406 45.0039 83.4609 45.3086 83.8398 45.2852C84.418 45.2539 85.125 45.2383 85.9883 45.2383C86.5742 45.2383 87.1445 45.2422 87.6992 45.2578C87.3945 39.5937 85.2578 34.4102 81.8789 30.293C82.4063 29.7812 82.9062 29.2773 83.3711 28.7969C87.1445 33.3281 89.5156 39.0664 89.8086 45.3555C90.8477 45.4219 91.7969 45.5156 92.6094 45.6289C94.0547 45.8359 95.5195 45.5078 96.7422 44.7109C97.4531 44.25 98.1211 43.9062 98.9297 43.957C100.336 44.0469 101.469 45.1992 101.508 46.6094C101.551 48.1562 100.309 49.4297 98.7695 49.4297C98.0352 49.4297 97.4141 49.1055 96.7578 48.6758C95.5312 47.8789 94.0586 47.543 92.6094 47.75C90.8789 47.9922 88.5508 48.1406 85.9883 48.1406C85.125 48.1406 84.418 48.125 83.8398 48.0938C83.4609 48.0742 83.1406 48.375 83.1406 48.7539H72.1914C72.1914 48.2656 71.793 47.8672 71.3047 47.8672H69.1094C69.0781 48.0664 69.0352 48.2578 68.9883 48.4492C68.543 48.2812 68.1133 48.1211 67.7031 47.9688C67.793 47.5586 67.8438 47.1289 67.8438 46.6914C67.8438 43.3945 65.1719 40.7188 61.875 40.7188C58.5781 40.7188 55.9023 43.3945 55.9023 46.6914C55.9023 47.1289 55.9531 47.5586 56.043 47.9688C55.6328 48.1211 55.2031 48.2812 54.7578 48.4492C54.7109 48.2578 54.6719 48.0664 54.6367 47.8672H52.4414C51.9531 47.8672 51.5547 48.2656 51.5547 48.7539H45.582C45.7266 49.9102 45.9922 51.0234 46.3633 52.0938C45.2305 52.6445 44.1094 53.2109 43 53.7969C42.3984 52.2031 41.9922 50.5117 41.8164 48.7539H40.6055C40.6055 48.375 40.2852 48.0742 39.9062 48.0938C39.3281 48.125 38.6211 48.1406 37.7578 48.1406C37.1758 48.1406 36.6016 48.1328 36.0469 48.1211C36.2109 51.1211 36.8867 53.9883 37.9844 56.6289C37.3789 56.9961 36.7734 57.3672 36.1758 57.7422C34.8828 54.7422 34.0977 51.4648 33.9375 48.0234C32.8984 47.957 31.9531 47.8633 31.1367 47.75C29.6914 47.543 28.2187 47.8789 26.9922 48.6758C26.332 49.1055 25.7109 49.4297 24.9766 49.4297C23.4375 49.4297 22.1953 48.1562 22.2383 46.6094C22.2812 45.1992 23.4102 44.0469 24.8164 43.957ZM88.2734 99.6016C99.3945 93.3555 107.172 95.3242 111.113 99.3398C119.039 88.9414 123.746 75.957 123.746 61.875C123.746 27.7031 96.043 0 61.875 0C27.7031 0 0 27.7031 0 61.875C0 75.957 4.70703 88.9414 12.6328 99.3398C16.5742 95.3242 24.3555 93.3555 35.4727 99.6016C44.4531 104.645 51.1797 112.672 61.875 110.492C72.5664 112.672 79.2969 104.645 88.2734 99.6016Z" fill="#03466E"/>
<path d="M98.2031 106.949C81.9453 119.156 71.6836 117.086 67.7305 115.422C72.9961 116.445 81.8672 115.844 94.5742 107.434C97.7812 105.313 100.543 104.367 102.898 104.18C101.441 104.793 99.8789 105.691 98.2031 106.949ZM25.543 106.949C23.8672 105.691 22.3047 104.793 20.8477 104.18C23.2031 104.367 25.9688 105.313 29.1719 107.434C41.8828 115.844 50.75 116.445 56.0156 115.422C52.0625 117.086 41.8008 119.156 25.543 106.949ZM94.1914 103.016C72.8828 119.016 61.875 110.492 61.875 110.492C61.875 110.492 50.8633 119.016 29.5547 103.016C15.9727 92.8204 9.66797 106.074 9.66797 106.082C11.6992 103.711 13.8203 102.746 15.0859 102.359C26.4297 115.457 43.1836 123.746 61.875 123.746C80.5625 123.746 97.3164 115.457 108.664 102.359C109.926 102.746 112.047 103.711 114.082 106.082C114.078 106.074 107.773 92.8204 94.1914 103.016Z" fill="#03466E"/>
</svg>
